<?xml version="1.0" standalone="no"?>
<svg viewBox="0 0 200 200" xmlns="http://www.w3.org/2000/svg">
  <path fill="#FF8C00" d="M41.1,-71.6C53.2,-64.1,63.2,-53.1,67.2,-40.6C71.3,-28.1,69.6,-14.1,65.3,-2.4C61.1,9.2,54.4,18.4,49.8,30C45.2,41.6,42.7,55.6,34.8,65.8C26.8,76.1,13.4,82.5,-1.6,85.3C-16.7,88.2,-33.3,87.4,-47.7,80.9C-62.2,74.4,-74.3,62.2,-82,47.7C-89.6,33.3,-92.8,16.6,-91.1,1C-89.4,-14.7,-82.9,-29.4,-73.4,-40.7C-63.9,-51.9,-51.4,-59.7,-38.7,-66.8C-26,-74,-13,-80.5,0.7,-81.7C14.4,-83,28.9,-79,41.1,-71.6Z" transform="translate(100 100)" />
</svg>
