<svg id="visual" viewBox="0 0 900 600" width="900" height="600" xmlns="http://www.w3.org/2000/svg" xmlns:xlink="http://www.w3.org/1999/xlink" version="1.1"><rect x="0" y="0" width="900" height="600" fill="#001220"></rect><path d="M0 381L21.5 386.8C43 392.7 86 404.3 128.8 402.7C171.7 401 214.3 386 257.2 375.7C300 365.3 343 359.7 385.8 372.5C428.7 385.3 471.3 416.7 514.2 419C557 421.3 600 394.7 642.8 389.8C685.7 385 728.3 402 771.2 411.3C814 420.7 857 422.3 878.5 423.2L900 424L900 601L878.5 601C857 601 814 601 771.2 601C728.3 601 685.7 601 642.8 601C600 601 557 601 514.2 601C471.3 601 428.7 601 385.8 601C343 601 300 601 257.2 601C214.3 601 171.7 601 128.8 601C86 601 43 601 21.5 601L0 601Z" fill="#fa7268"></path><path d="M0 445L21.5 448C43 451 86 457 128.8 457.3C171.7 457.7 214.3 452.3 257.2 441.3C300 430.3 343 413.7 385.8 408.3C428.7 403 471.3 409 514.2 418.2C557 427.3 600 439.7 642.8 449.8C685.7 460 728.3 468 771.2 463.5C814 459 857 442 878.5 433.5L900 425L900 601L878.5 601C857 601 814 601 771.2 601C728.3 601 685.7 601 642.8 601C600 601 557 601 514.2 601C471.3 601 428.7 601 385.8 601C343 601 300 601 257.2 601C214.3 601 171.7 601 128.8 601C86 601 43 601 21.5 601L0 601Z" fill="#ef5f67"></path><path d="M0 449L21.5 451.2C43 453.3 86 457.7 128.8 456.7C171.7 455.7 214.3 449.3 257.2 452.2C300 455 343 467 385.8 468C428.7 469 471.3 459 514.2 462.7C557 466.3 600 483.7 642.8 484.8C685.7 486 728.3 471 771.2 469.2C814 467.3 857 478.7 878.5 484.3L900 490L900 601L878.5 601C857 601 814 601 771.2 601C728.3 601 685.7 601 642.8 601C600 601 557 601 514.2 601C471.3 601 428.7 601 385.8 601C343 601 300 601 257.2 601C214.3 601 171.7 601 128.8 601C86 601 43 601 21.5 601L0 601Z" fill="#e34c67"></path><path d="M0 481L21.5 488.3C43 495.7 86 510.3 128.8 517.2C171.7 524 214.3 523 257.2 522.2C300 521.3 343 520.7 385.8 523.7C428.7 526.7 471.3 533.3 514.2 533.5C557 533.7 600 527.3 642.8 521C685.7 514.7 728.3 508.3 771.2 510.5C814 512.7 857 523.3 878.5 528.7L900 534L900 601L878.5 601C857 601 814 601 771.2 601C728.3 601 685.7 601 642.8 601C600 601 557 601 514.2 601C471.3 601 428.7 601 385.8 601C343 601 300 601 257.2 601C214.3 601 171.7 601 128.8 601C86 601 43 601 21.5 601L0 601Z" fill="#d53867"></path><path d="M0 572L21.5 567.2C43 562.3 86 552.7 128.8 545.3C171.7 538 214.3 533 257.2 537.7C300 542.3 343 556.7 385.8 556.2C428.7 555.7 471.3 540.3 514.2 539.7C557 539 600 553 642.8 557.8C685.7 562.7 728.3 558.3 771.2 558.5C814 558.7 857 563.3 878.5 565.7L900 568L900 601L878.5 601C857 601 814 601 771.2 601C728.3 601 685.7 601 642.8 601C600 601 557 601 514.2 601C471.3 601 428.7 601 385.8 601C343 601 300 601 257.2 601C214.3 601 171.7 601 128.8 601C86 601 43 601 21.5 601L0 601Z" fill="#c62368"></path></svg>